<svg width="285" height="128" viewBox="0 0 285 128" fill="none" xmlns="http://www.w3.org/2000/svg">
<path d="M275.573 115.183H268.312L268.555 113.797H284.593L284.351 115.183H277.09L275 126.997H273.483L275.573 115.183Z" fill="#9E7CEE"/>
<path d="M257.716 113.512C264.162 113.512 266.274 116.416 265.57 120.398C265.548 120.574 265.504 120.772 265.438 120.926H248.894C248.542 123.874 250.346 126.03 255.516 126.03C259.432 126.03 261.852 124.798 263.084 122.906H264.712C263.26 125.546 260.268 127.262 255.296 127.262C248.85 127.262 246.738 124.38 247.442 120.398C248.146 116.416 251.27 113.512 257.716 113.512ZM257.496 114.766C252.348 114.766 249.774 116.922 249.092 119.848H264.118C264.47 116.922 262.666 114.766 257.496 114.766Z" fill="#9E7CEE"/>
<path d="M227.892 121.343L229.234 113.797H245.272L242.94 126.997H241.422L243.512 115.183H230.51L229.41 121.343C228.75 125.149 227.21 127.019 223.756 127.019C223.47 127.019 223.184 127.019 222.898 126.997L223.14 125.567C223.36 125.589 223.558 125.589 223.756 125.589C226.22 125.589 227.386 124.269 227.892 121.343Z" fill="#9E7CEE"/>
<path d="M95.0438 4.51172C101.49 4.51172 103.602 7.41572 102.898 11.3977C102.876 11.5737 102.832 11.7717 102.766 11.9257H86.2218C85.8698 14.8737 87.6738 17.0297 92.8438 17.0297C96.7598 17.0297 99.1798 15.7977 100.412 13.9057H102.04C100.588 16.5457 97.5958 18.2617 92.6238 18.2617C86.1778 18.2617 84.0658 15.3797 84.7698 11.3977C85.4738 7.41572 88.5978 4.51172 95.0438 4.51172ZM94.8238 5.76572C89.6758 5.76572 87.1018 7.92172 86.4198 10.8477H101.446C101.798 7.92172 99.9938 5.76572 94.8238 5.76572Z" fill="#9E7CEE"/>
<path d="M74.2704 4.51172C80.7164 4.51172 82.8284 7.41572 82.1244 11.3977C82.1024 11.5737 82.0584 11.7717 81.9924 11.9257H65.4484C65.0964 14.8737 66.9004 17.0297 72.0704 17.0297C75.9864 17.0297 78.4064 15.7977 79.6384 13.9057H81.2664C79.8144 16.5457 76.8224 18.2617 71.8504 18.2617C65.4044 18.2617 63.2924 15.3797 63.9964 11.3977C64.7004 7.41572 67.8244 4.51172 74.2704 4.51172ZM74.0504 5.76572C68.9024 5.76572 66.3284 7.92172 65.6464 10.8477H80.6724C81.0244 7.92172 79.2204 5.76572 74.0504 5.76572Z" fill="#9E7CEE"/>
<path d="M44.4471 12.3429L45.7891 4.79688H61.8271L59.4951 17.9969H57.9771L60.0671 6.18288H47.0651L45.9651 12.3429C45.3051 16.1489 43.7651 18.0189 40.3111 18.0189C40.0251 18.0189 39.7391 18.0189 39.4531 17.9969L39.6951 16.5669C39.9151 16.5889 40.1131 16.5889 40.3111 16.5889C42.7751 16.5889 43.9411 15.2689 44.4471 12.3429Z" fill="#9E7CEE"/>
<path d="M31.2782 4.53516C37.7242 4.53516 39.8362 7.41716 39.1322 11.3992C38.4282 15.3812 35.3042 18.2632 28.8582 18.2632C22.4122 18.2632 20.3002 15.3812 21.0042 11.3992C21.7082 7.41716 24.8322 4.53516 31.2782 4.53516ZM29.1002 16.8332C34.5342 16.8332 37.0642 14.5232 37.6142 11.3992C38.1642 8.27516 36.4702 5.96516 31.0362 5.96516C25.6022 5.96516 23.0722 8.27516 22.5222 11.3992C21.9722 14.5232 23.6662 16.8332 29.1002 16.8332Z" fill="#9E7CEE"/>
<path d="M10.821 5.21644C16.981 5.21644 19.005 7.96644 18.345 11.7284C17.685 15.5124 14.561 18.2624 8.13702 18.2624C1.20702 18.2624 -0.706984 15.0064 0.217016 9.81444C1.07502 4.90844 4.08902 1.58644 11.261 0.992436C12.779 0.882437 17.465 0.508437 18.675 0.398438C18.631 0.684436 18.499 1.45444 18.455 1.67444C17.707 1.74044 11.877 2.22444 11.151 2.29044C5.16702 2.79644 2.57102 5.48044 1.82302 9.33044C1.77902 9.59444 1.73502 9.85844 1.71302 10.1004C2.76902 7.24044 5.62902 5.21644 10.821 5.21644ZM8.42302 16.8764C13.813 16.8764 16.321 14.6764 16.827 11.7064C17.355 8.73644 15.639 6.53644 10.249 6.53644C4.83702 6.53644 2.35102 8.73644 1.82302 11.7064C1.29502 14.6764 3.03302 16.8764 8.42302 16.8764Z" fill="#9E7CEE"/>
<path d="M143.077 127C133.577 127 126.727 124.762 122.527 120.286C118.427 115.809 117.227 109.274 118.927 100.68L127.627 56.6343C129.327 48.04 132.527 41.9524 137.227 38.3714C141.927 34.7905 149.077 33 158.677 33H195.877C205.377 33 212.177 35.2381 216.277 39.7143C220.477 44.1905 221.727 50.7257 220.027 59.32L211.327 103.366C209.627 111.96 206.427 118.048 201.727 121.629C197.027 125.21 189.877 127 180.277 127H143.077ZM151.027 112.766H176.527C181.927 112.766 185.827 111.826 188.227 109.946C190.727 107.976 192.477 104.529 193.477 99.6057L200.977 61.3343C201.977 56.4105 201.427 52.8295 199.327 50.5914C197.227 48.3533 193.427 47.2343 187.927 47.2343H162.577C157.077 47.2343 153.077 48.219 150.577 50.1886C148.177 52.0686 146.477 55.4705 145.477 60.3943L137.977 98.6657C137.077 103.59 137.627 107.171 139.627 109.409C141.727 111.647 145.527 112.766 151.027 112.766Z" fill="#00A483"/>
<path d="M92.7722 124.449C92.5499 125.916 91.2893 127 89.806 127H4.54007C2.6486 127 1.22911 125.271 1.59753 123.416L6.88574 96.7857C8.08574 90.4295 10.3857 85.9981 13.7857 83.4914C17.1857 80.9848 22.7357 79.1943 30.4357 78.12L76.7857 71.8086C80.5857 71.2714 83.1857 70.421 84.5857 69.2571C86.0857 68.0933 87.1857 65.9 87.8857 62.6771L89.2357 56.2314C90.7357 49.7857 87.7357 46.5629 80.2357 46.5629H46.3357C42.6357 46.5629 39.9857 47.1448 38.3857 48.3086C36.8857 49.4724 35.8357 51.7552 35.2357 55.1571L34.7729 57.7811C34.5201 59.2148 33.2743 60.26 31.8185 60.26H19.9082C18.0439 60.26 16.631 58.5776 16.9533 56.7413L17.9857 50.86C19.1857 44.2352 21.5357 39.6248 25.0357 37.0286C28.6357 34.3429 34.1357 33 41.5357 33H89.6857C96.8857 33 102.086 34.7905 105.286 38.3714C108.586 41.8629 109.636 46.921 108.436 53.5457L106.036 66.4371C104.836 72.7933 102.536 77.2248 99.1357 79.7314C95.7357 82.2381 90.1357 84.0286 82.3357 85.1029L35.9857 91.4143C31.9857 91.9514 29.2357 92.8019 27.7357 93.9657C26.3357 95.1295 25.3357 97.3229 24.7357 100.546L23.2567 106.811C22.812 108.694 24.2409 110.5 26.1764 110.5H91.3969C93.2328 110.5 94.6381 112.134 94.3631 113.949L92.7722 124.449Z" fill="#00A483"/>
</svg>
