<svg width="1920" height="146" viewBox="0 0 1920 146" fill="none" xmlns="http://www.w3.org/2000/svg">
<mask id="path-1-inside-1_297_722" fill="white">
<path d="M-182 100.621C-97.6251 89.2542 -13.2501 77.887 71.1288 81.4828C155.504 85.0812 239.879 103.643 324.254 91.0534C408.629 78.4641 493.004 34.7241 577.382 38.4229C661.757 42.1241 746.132 93.2666 830.507 119.76C914.882 146.253 948.125 135.529 1032.5 107.191C1116.88 78.8508 1215.5 -6.5321 1363.5 0.398535C1470 12.3692 1505.51 132.655 1589.89 143.681C1674.26 154.707 1758.64 97.6203 1843.01 81.4828C1927.39 65.3479 2011.77 90.1601 2096.14 114.975"/>
</mask>
<path d="M71.1288 81.4828L71.1714 80.4838L71.1714 80.4837L71.1288 81.4828ZM577.382 38.4229L577.426 37.4238L577.382 38.4229ZM1032.5 107.191L1032.82 108.139V108.139L1032.5 107.191ZM1363.5 0.398535L1363.61 -0.595207L1363.58 -0.598846L1363.55 -0.60037L1363.5 0.398535ZM1843.01 81.4828L1842.83 80.5006V80.5006L1843.01 81.4828ZM-181.866 101.612C-97.4761 90.2432 -13.1894 78.8905 71.0862 82.4819L71.1714 80.4837C-13.3109 76.8835 -97.774 88.2653 -182.134 99.6304L-181.866 101.612ZM71.0862 82.4819C113.253 84.2802 155.351 89.8127 197.608 93.335C239.821 96.8536 282.099 98.3542 324.401 92.0425L324.106 90.0644C282.033 96.3419 239.936 94.8563 197.774 91.3419C155.656 87.8312 113.38 82.2838 71.1714 80.4838L71.0862 82.4819ZM324.401 92.0425C366.674 85.7352 408.964 71.6207 451.091 59.5917C493.268 47.5486 535.323 37.5802 577.339 39.4219L577.426 37.4238C535.063 35.5669 492.741 45.6191 450.542 57.6686C408.293 69.7322 366.209 83.7824 324.106 90.0644L324.401 92.0425ZM577.339 39.4219C619.353 41.2649 661.412 54.9231 703.579 71.4753C745.691 88.0053 787.979 107.454 830.208 120.714L830.807 118.806C788.661 105.572 746.574 86.2034 704.31 69.6135C662.103 53.0457 619.787 39.2821 577.426 37.4238L577.339 39.4219ZM830.208 120.714C872.473 133.985 902.019 137.962 931.602 135.032C961.142 132.107 990.661 122.298 1032.82 108.139L1032.18 106.243C989.964 120.422 960.674 130.144 931.405 133.042C902.179 135.936 872.917 132.028 830.807 118.806L830.208 120.714ZM1032.82 108.139C1053.99 101.028 1076.03 90.3474 1099.45 78.4659C1122.9 66.575 1147.73 53.479 1174.55 41.4811C1228.17 17.4942 1289.67 -2.05784 1363.45 1.39744L1363.55 -0.60037C1289.33 -4.07572 1227.51 15.5984 1173.73 39.6554C1146.85 51.6794 1121.96 64.8097 1098.55 76.6823C1075.13 88.5642 1053.2 99.1837 1032.18 106.243L1032.82 108.139ZM1363.39 1.39228C1416.26 7.3346 1451.54 40.1474 1484.28 73.0991C1500.63 89.5459 1516.36 106.052 1533.29 119.117C1550.23 132.196 1568.43 141.886 1589.76 144.673L1590.02 142.69C1569.16 139.964 1551.28 130.483 1534.51 117.534C1517.72 104.57 1502.1 88.1887 1485.7 71.6894C1452.97 38.7488 1417.24 5.43317 1363.61 -0.595207L1363.39 1.39228ZM1589.76 144.673C1632.2 150.219 1674.58 138.629 1716.79 123.711C1759.07 108.767 1801.11 90.5148 1843.2 82.465L1842.83 80.5006C1800.54 88.5883 1758.21 106.948 1716.12 121.826C1673.95 136.729 1631.96 148.17 1590.02 142.69L1589.76 144.673ZM1843.2 82.465C1927.3 66.3835 2011.44 91.105 2095.86 115.934L2096.43 114.015C2012.1 89.2151 1927.48 64.3123 1842.83 80.5006L1843.2 82.465Z" fill="#00A483" mask="url(#path-1-inside-1_297_722)"/>
</svg>
