<svg width="1920" height="102" viewBox="0 0 1920 102" fill="none" xmlns="http://www.w3.org/2000/svg">
<mask id="path-1-inside-1_297_723" fill="white">
<path d="M-182 0.974609C-97.6251 17.9276 -13.2501 34.878 71.1288 39.2493C155.504 43.623 239.879 35.415 324.254 48.8198C408.629 62.2246 493.004 97.2397 577.382 101.448C661.757 105.656 746.132 79.0521 830.507 63.1731C914.882 47.2916 999.261 42.1325 1083.64 48.8198C1168.01 55.5072 1252.39 74.041 1336.76 77.5265C1421.14 81.0119 1505.51 69.4464 1589.89 58.3879C1674.26 47.3293 1758.64 36.7726 1843.01 34.4665C1927.39 32.1579 2011.77 38.095 2096.14 44.0346"/>
</mask>
<path d="M71.1288 39.2493L71.1806 38.2506H71.1805L71.1288 39.2493ZM577.382 101.448L577.432 100.449L577.382 101.448ZM830.507 63.1731L830.692 64.1559L830.692 64.1559L830.507 63.1731ZM1336.76 77.5265L1336.72 78.5256L1336.76 77.5265ZM1843.01 34.4665L1843.04 35.4661L1843.01 34.4665ZM-182.197 1.95502C-97.8352 18.9053 -13.3877 35.8722 71.0771 40.2479L71.1805 38.2506C-13.1125 33.8838 -97.4149 16.9498 -181.803 -0.00579667L-182.197 1.95502ZM71.077 40.2479C113.296 42.4364 155.535 41.4777 197.687 41.6479C239.862 41.8182 281.987 43.1174 324.097 49.8074L324.411 47.8322C282.145 41.1174 239.896 39.8183 197.695 39.6479C155.472 39.4774 113.336 40.4358 71.1806 38.2506L71.077 40.2479ZM324.097 49.8074C366.222 56.5 408.341 68.5858 450.565 79.5505C492.758 90.5072 535.033 100.337 577.333 102.447L577.432 100.449C535.353 98.3505 493.251 88.5687 451.068 77.6147C408.916 66.6686 366.66 54.5444 324.411 47.8322L324.097 49.8074ZM577.333 102.447C619.637 104.556 661.915 98.941 704.134 90.8251C725.243 86.7672 746.351 82.0813 767.442 77.4207C788.537 72.759 809.616 68.1223 830.692 64.1559L830.322 62.1904C809.211 66.1635 788.102 70.8069 767.01 75.4678C745.913 80.1299 724.834 84.8093 703.756 88.8611C661.6 96.9649 619.503 102.547 577.432 100.449L577.333 102.447ZM830.692 64.1559C914.986 48.2897 999.276 43.1368 1083.56 49.8167L1083.72 47.8229C999.246 41.1282 914.778 46.2936 830.322 62.1904L830.692 64.1559ZM1083.56 49.8167C1125.71 53.1574 1167.86 59.4571 1210.06 65.3642C1252.25 71.2693 1294.48 76.7807 1336.72 78.5256L1336.8 76.5273C1294.67 74.7868 1252.52 69.2885 1210.34 63.3835C1168.16 57.4805 1125.94 51.1696 1083.72 47.8229L1083.56 49.8167ZM1336.72 78.5256C1421.2 82.0153 1505.67 70.4352 1590.02 59.3794L1589.76 57.3964C1505.36 68.4577 1421.08 80.0085 1336.8 76.5273L1336.72 78.5256ZM1590.02 59.3794C1674.4 48.3204 1758.73 37.7706 1843.04 35.4661L1842.99 33.4669C1758.55 35.7745 1674.13 46.3382 1589.76 57.3964L1590.02 59.3794ZM1843.04 35.4661C1927.36 33.1591 2011.69 39.0919 2096.07 45.0321L2096.21 43.037C2011.85 37.098 1927.42 31.1567 1842.99 33.4669L1843.04 35.4661Z" fill="#9E7CEE" mask="url(#path-1-inside-1_297_723)"/>
</svg>
