<svg width="26" height="18" viewBox="0 0 26 18" fill="none" xmlns="http://www.w3.org/2000/svg">
<path fill-rule="evenodd" clip-rule="evenodd" d="M0 17.6702V0H7.89709C10.4336 0 12.4899 2.127 12.4899 4.75078C12.4899 6.41806 11.9943 7.45087 10.177 8.5104C12.3517 9.53535 12.9556 10.9559 12.9556 12.9373C12.9556 15.6178 10.6536 17.6702 8.06227 17.6702H0ZM3.3417 2.925V7.17403H7.25283C7.25283 7.17403 9.15376 7.17403 9.15376 5.04951C9.15376 2.925 7.25283 2.925 7.25283 2.925H3.3417ZM3.3417 14.6776V10.0896H7.53688C8.21422 10.0896 9.63446 10.4512 9.63446 12.6209C9.63446 14.2301 8.23607 14.6626 7.53688 14.6776H3.3417Z" fill="#00A483"/>
<path fill-rule="evenodd" clip-rule="evenodd" d="M20.1005 4.8687C17.6971 4.8687 14.1355 6.6542 14.1355 11.4005C14.1355 14.2905 15.665 18 20.2535 18C23.9243 18 25.614 15.2125 26 13.8188H22.5477C22.3729 14.4516 21.6956 15.1522 20.2535 15.1522C18.1559 15.1522 17.413 13.299 17.3038 12.3723H26V11.4005C26 6.6542 22.504 4.8687 20.1005 4.8687ZM20.1005 7.58085C18.1428 7.58085 17.4203 9.25334 17.3038 10.0896H22.5477C22.5477 9.25334 22.0583 7.58085 20.1005 7.58085Z" fill="#00A483"/>
<path d="M15.9272 1.0039V3.19622H24.1646V1.0039H15.9272Z" fill="#00A483"/>
</svg>
