<svg width="21" height="18" viewBox="0 0 21 18" fill="none" xmlns="http://www.w3.org/2000/svg">
<path d="M2.81693 2.34974L0 4.87246L0.974683 6.085C1.40874 5.81842 2.27686 5.12299 2.66399 5.12299C3.5321 5.12299 4.31251 7.44692 5.05717 10.0026C5.72586 12.2975 6.418 18 9.60891 18C13.2808 18 21 8.20605 21 3.84709C21 2.26983 20.6833 0 17.5041 0C14.0973 0 12.4212 3.24831 12.009 4.87246C12.3056 4.67714 13.1128 4.54694 13.5575 4.54694C15.3696 4.54694 14.9826 6.40264 14.7355 7.15132C14.4884 7.9 12.5887 11.5454 11.5643 11.5454C10.3123 11.5454 9.571 6.17449 9.20859 3.84709C8.84617 1.51968 7.90719 0.250191 6.47402 0.250191C5.32747 0.250191 3.55823 1.64989 2.81693 2.34974Z" fill="#00A483"/>
</svg>
