<svg width="224" height="116" viewBox="0 0 224 116" fill="none" xmlns="http://www.w3.org/2000/svg">
<g clip-path="url(#clip0_297_1137)">
<path fill-rule="evenodd" clip-rule="evenodd" d="M44.5543 76.1543C45.4112 76.1543 46.1479 75.4613 46.1479 74.5875V69.1039H48.8689C49.3951 69.1039 49.9664 69.134 50.4926 69.1039C51.9208 68.9683 53.3038 68.5314 54.5065 67.748C55.6641 66.9948 56.6563 65.9553 57.3629 64.7351C58.0544 63.4696 58.4153 62.0083 58.4153 60.5922C58.3852 59.1309 58.0244 57.6997 57.3178 56.4343C56.6263 55.2441 55.634 54.2197 54.4765 53.4514C53.2437 52.653 51.8606 52.2613 50.4324 52.1257C49.9063 52.0956 49.4102 52.1257 48.8689 52.1257H44.5694C43.7124 52.1257 43.0059 52.8187 43.0059 53.6925V74.6026C43.0059 75.4613 43.6974 76.1693 44.5694 76.1693L44.5543 76.1543ZM50.6128 55.3044C51.0789 55.4099 51.5449 55.5002 51.9659 55.666C52.4018 55.8618 52.7927 56.1028 53.1535 56.3589C53.4842 56.6602 53.815 56.9917 54.1157 57.3532C54.3863 57.7148 54.6118 58.1215 54.8072 58.5132C54.9726 58.9802 55.1079 59.4171 55.168 59.8691C55.2281 60.3662 55.2281 60.8332 55.168 61.3304C55.1079 61.7974 54.9726 62.2644 54.8072 62.6862C54.6118 63.093 54.3712 63.4847 54.1157 63.8763C53.815 64.2078 53.4842 64.5392 53.1535 64.8405C52.7927 65.1117 52.3868 65.3376 51.9659 65.5335C51.5299 65.6992 51.0789 65.8348 50.6128 65.8951C50.1167 65.9553 49.5906 65.9252 49.0644 65.9252H46.1479V55.2291H48.433C49.1696 55.2291 49.8912 55.1989 50.6128 55.2592V55.3044Z" fill="white"/>
<path fill-rule="evenodd" clip-rule="evenodd" d="M75.7833 53.2111C75.2271 52.7441 74.6558 52.3524 74.0244 52.0813C73.6335 51.9155 73.2276 51.7498 72.8367 51.6444C72.4008 51.5389 72.0099 51.4787 71.5739 51.4485C70.8523 51.3883 70.0856 51.4636 69.394 51.6142C68.7025 51.7649 67.9959 52.0361 67.4096 52.3826C65.1546 53.6781 63.7715 56.1337 63.7715 58.7249V69.5114C63.7715 69.9031 63.8016 70.34 63.8767 70.7317C63.982 71.4548 64.2075 72.1327 64.5081 72.7955C64.8088 73.4283 65.2297 73.9857 65.6958 74.528C66.1618 75.0252 66.7181 75.4922 67.3194 75.8236C67.9207 76.1852 68.6123 76.4865 69.2738 76.6522C69.9954 76.8179 70.732 76.8781 71.4536 76.8179C72.1752 76.7878 72.9119 76.6522 73.5734 76.381C73.9793 76.2153 74.3401 76.0496 74.7009 75.8537C75.0617 75.6579 75.3924 75.3867 75.6931 75.1306C76.0238 74.8594 76.3245 74.5732 76.5951 74.2267C76.9559 73.7898 77.2867 73.368 77.5272 72.8709C78.0233 71.8465 78.324 70.7166 78.324 69.5566V58.9057C78.324 58.1826 78.2187 57.4444 78.0233 56.7062C77.6625 55.3805 76.8657 54.115 75.7983 53.2262L75.7833 53.2111ZM74.295 72.0875C74.0695 72.3587 73.7989 72.5846 73.5283 72.8106C73.2577 73.0065 72.9269 73.2174 72.5962 73.3379C72.2654 73.4735 71.9347 73.5639 71.5739 73.6392C71.2131 73.6693 70.8523 73.6693 70.4464 73.6392C70.1156 73.5789 69.7548 73.4735 69.4241 73.3379C69.0934 73.2023 68.7927 73.0065 68.492 72.8106C68.2214 72.5846 67.9659 72.3436 67.7704 72.0875C67.5449 71.7862 67.3645 71.4849 67.2142 71.1535C67.0789 70.822 67.0187 70.4605 66.9436 70.1291C66.9135 69.7675 66.9135 69.4361 66.9135 69.0745V59.0865C66.9135 58.755 66.9135 58.4537 66.9436 58.1524C67.0037 57.7909 67.0488 57.4142 67.2142 57.0828C67.3645 56.7815 67.5449 56.4501 67.7704 56.1488C67.9659 55.8927 68.2214 55.6366 68.492 55.4257C68.7777 55.1997 69.0934 55.034 69.4241 54.8984C69.7548 54.7628 70.1156 54.6423 70.4464 54.5971C70.8373 54.5368 71.2131 54.5519 71.5739 54.5971C71.9347 54.6423 72.2654 54.7628 72.5962 54.8984C72.9269 55.034 73.2426 55.2148 73.5283 55.4257C73.8139 55.6366 74.0845 55.8776 74.295 56.1488C74.5205 56.435 74.6708 56.7665 74.8212 57.0828C74.9715 57.4142 75.0767 57.7758 75.1218 58.1524C75.1519 58.4537 75.1218 58.7852 75.1218 59.1166V70.0989C75.0617 70.4605 74.9565 70.8371 74.8212 71.1685C74.6558 71.5 74.4904 71.8013 74.295 72.1026V72.0875Z" fill="white"/>
<path fill-rule="evenodd" clip-rule="evenodd" d="M99.4103 69.1177C99.3802 68.4247 99.2449 67.6865 98.9743 66.9935C98.839 66.632 98.6736 66.2252 98.4481 65.8637C98.2527 65.5322 97.9821 65.2008 97.7115 64.8995C97.2755 64.3722 96.7193 63.9052 96.1179 63.5437C95.7872 63.3478 95.3963 63.1821 94.9904 63.0164C94.7198 62.9109 94.4642 62.8205 94.1636 62.7452C93.6975 62.6398 93.2014 62.5795 92.7354 62.5795C92.5099 62.5795 92.2693 62.5795 92.0438 62.5494C91.7432 62.5192 91.4425 62.4138 91.1418 62.3234C90.8712 62.1878 90.6156 62.0221 90.345 61.8564C90.1195 61.6605 89.9091 61.4647 89.7136 61.1935C89.5182 60.9676 89.3829 60.6964 89.2476 60.3951C89.1123 60.0938 89.0521 59.7925 88.977 59.5063C88.9469 59.1447 88.9469 58.7681 88.977 58.4065C89.0371 58.0751 89.1123 57.7738 89.2476 57.4725C89.3829 57.2013 89.5182 56.9452 89.7136 56.674C89.9091 56.4481 90.1045 56.2372 90.345 56.0413C90.6156 55.8455 90.8712 55.7099 91.1418 55.5743C91.4425 55.4387 91.7432 55.3785 92.0739 55.3031H92.5399C92.7654 55.3031 92.9759 55.3031 93.2014 55.3333C93.6073 55.3935 94.0283 55.499 94.4342 55.6647C94.795 55.8304 95.1558 56.0263 95.5015 56.2974C95.727 56.4933 95.9676 56.6891 96.163 56.9302C96.7644 57.5629 97.7866 57.4876 98.388 56.9302C98.6887 56.6289 98.854 56.2372 98.854 55.8003C98.854 55.3634 98.6887 55.0018 98.388 54.6704C96.9598 53.1037 94.8852 52.2148 92.7504 52.1395C92.6903 52.1094 92.6151 52.1094 92.555 52.1094C91.8334 52.1094 91.0967 52.245 90.4052 52.4709C90.0444 52.6065 89.6385 52.7722 89.2776 52.9681C88.9168 53.1639 88.5861 53.4351 88.2854 53.6611C87.7292 54.0979 87.2632 54.6553 86.8873 55.2278C86.7219 55.499 86.5866 55.725 86.4964 55.9811C86.301 56.3878 86.1657 56.7494 86.0605 57.1712C85.8951 57.8039 85.835 58.4969 85.835 59.1598C85.865 59.8829 86.0003 60.6211 86.2709 61.2839C86.4062 61.6756 86.5716 62.0522 86.7971 62.4138C86.9925 62.7753 87.2632 63.1068 87.5338 63.4081C87.9697 63.9353 88.526 64.4024 89.1273 64.7338C89.4881 64.9598 89.894 65.1405 90.2849 65.2912C90.5856 65.4268 90.9163 65.487 91.217 65.5624C91.653 65.6528 92.104 65.6979 92.57 65.6979C92.7654 65.6979 92.9759 65.7281 93.1713 65.7281C93.5021 65.7883 93.8027 65.8637 94.1034 65.9992C94.374 66.1047 94.6296 66.2704 94.9002 66.4663C95.1257 66.6621 95.3362 66.873 95.5316 67.099C95.727 67.3551 95.8623 67.6263 95.9976 67.8974C96.133 68.1987 96.1931 68.5 96.2683 68.8314C96.2983 69.1629 96.2983 69.5244 96.2683 69.8559C96.2081 70.1873 96.133 70.4886 95.9976 70.7899C95.8623 71.0611 95.727 71.3172 95.5316 71.5883C95.3362 71.8143 95.1257 72.0553 94.9002 72.2211C94.6296 72.4169 94.374 72.5826 94.1034 72.7182C93.8027 72.8086 93.472 72.8839 93.1713 72.9442C92.7053 72.9743 92.2092 72.9743 91.7131 72.9442C91.3222 72.8839 90.8862 72.7483 90.4803 72.6128C90.1195 72.4169 89.7587 72.206 89.428 71.98C89.2025 71.7842 88.9619 71.5883 88.7665 71.3473C88.1652 70.7146 87.1128 70.7447 86.5115 71.3473C86.2409 71.6486 86.0755 72.0403 86.0755 72.447C86.0755 72.8839 86.2409 73.2756 86.5115 73.5769C87.6089 74.7369 89.0672 75.6107 90.6156 75.927C91.2771 76.0626 91.9687 76.1229 92.6602 76.1229C93.3517 76.1229 94.0884 76.0174 94.7499 75.7915C95.4113 75.5956 96.0428 75.2642 96.614 74.8574C96.9448 74.5863 97.2755 74.3302 97.5461 74.0289C97.8468 73.7577 98.0723 73.4263 98.3128 73.0647C98.7187 72.5073 99.0044 71.8444 99.2148 71.1665C99.3802 70.5037 99.4403 69.7655 99.4403 69.0725L99.4103 69.1177Z" fill="white"/>
<path fill-rule="evenodd" clip-rule="evenodd" d="M110.985 59.1319V74.5734C110.985 75.4321 111.706 76.1703 112.578 76.1703C113.45 76.1703 114.127 75.4472 114.127 74.5734V55.23H119.163C119.99 55.23 120.711 54.5371 120.711 53.6633C120.711 52.7895 119.99 52.0664 119.163 52.0664H105.708C104.851 52.0664 104.114 52.8046 104.114 53.6633C104.114 54.522 104.851 55.23 105.708 55.23H110.97V59.1469L110.985 59.1319Z" fill="white"/>
<path fill-rule="evenodd" clip-rule="evenodd" d="M128.803 76.1543C129.66 76.1543 130.396 75.4613 130.396 74.5875V69.1039H133.117C133.644 69.1039 134.215 69.134 134.741 69.1039C136.169 68.9683 137.552 68.5314 138.755 67.748C139.913 66.9948 140.905 65.9553 141.611 64.7351C142.303 63.4696 142.664 62.0083 142.664 60.5922C142.634 59.1309 142.258 57.6997 141.566 56.4343C140.875 55.2441 139.882 54.2197 138.71 53.4514C137.477 52.653 136.094 52.2613 134.666 52.1257C134.14 52.0956 133.644 52.1257 133.102 52.1257H128.788C127.931 52.1257 127.239 52.8187 127.239 53.6925V74.6026C127.239 75.4613 127.931 76.1693 128.788 76.1693L128.803 76.1543ZM134.861 55.3044C135.327 55.4099 135.793 55.5002 136.214 55.666C136.65 55.8618 137.041 56.1028 137.402 56.3589C137.733 56.6602 138.063 56.9917 138.364 57.3532C138.635 57.7148 138.86 58.1215 139.056 58.5132C139.221 58.9802 139.356 59.4171 139.416 59.8691C139.477 60.3662 139.477 60.8332 139.416 61.3304C139.356 61.7974 139.221 62.2644 139.056 62.6862C138.86 63.093 138.62 63.4847 138.364 63.8763C138.063 64.2078 137.733 64.5392 137.402 64.8405C137.041 65.1117 136.635 65.3376 136.214 65.5335C135.778 65.6992 135.312 65.8348 134.861 65.8951C134.365 65.9553 133.839 65.9252 133.313 65.9252H130.396V55.2291H132.681C133.418 55.2291 134.14 55.1989 134.861 55.2592V55.3044Z" fill="#00A483"/>
<path fill-rule="evenodd" clip-rule="evenodd" d="M162.989 62.8836C163.214 62.2208 163.349 61.4826 163.424 60.7595C163.455 60.0363 163.394 59.2982 163.259 58.575C163.124 57.882 162.868 57.2192 162.538 56.5865C162.237 55.9537 161.801 55.3963 161.38 54.8691C160.914 54.3418 160.358 53.9049 159.786 53.5132C159.185 53.1065 158.554 52.8202 157.892 52.5792C156.99 52.2779 156.043 52.1875 155.111 52.1875H150.345C149.488 52.1875 148.752 52.9106 148.752 53.7844C148.752 54.9745 148.752 56.2098 148.722 57.4V74.6192C148.722 75.4478 149.413 76.1859 150.27 76.1859C151.127 76.1859 151.864 75.4478 151.864 74.6192V68.3974H155.306C155.833 68.3974 156.404 68.3371 156.93 68.2317C157.035 68.2317 157.125 68.2015 157.231 68.1714C157.471 68.7288 157.727 69.3013 157.967 69.8737C158.629 71.335 159.26 72.8415 159.922 74.333C160.057 74.6644 160.222 75.0259 160.358 75.3724C160.523 75.734 160.959 76.0052 161.32 76.1106C161.711 76.2161 162.147 76.1407 162.507 75.9449C162.868 75.7491 163.139 75.3875 163.244 75.0109C163.274 74.8452 163.274 74.7096 163.304 74.574C163.304 74.2727 163.244 74.0015 163.079 73.7756C162.688 72.8415 162.282 71.9075 161.891 70.9735C161.29 69.6026 160.703 68.2317 160.102 66.8457C160.298 66.7101 160.508 66.5444 160.703 66.3787C161.771 65.4748 162.522 64.2545 163.019 62.9288L162.989 62.8836ZM160.237 60.9252C160.177 61.362 160.042 61.7839 159.907 62.1906C159.711 62.5823 159.501 62.9589 159.245 63.2904C158.975 63.6218 158.689 63.9231 158.343 64.1792C158.012 64.4504 157.652 64.6462 157.246 64.8119C156.855 64.9776 156.419 65.1132 156.013 65.1735C155.487 65.2036 154.916 65.2036 154.389 65.2036H151.834V60.187C151.834 59.1174 151.834 58.093 151.864 57.0233V55.3059H154.209C154.81 55.3059 155.397 55.3059 155.998 55.3361C156.404 55.3963 156.825 55.5319 157.231 55.6976C157.637 55.8633 157.997 56.0592 158.328 56.3304C158.659 56.6015 158.96 56.8878 159.23 57.2343C159.501 57.5657 159.696 57.9272 159.892 58.334C160.027 58.7407 160.162 59.1626 160.222 59.5995C160.252 60.0363 160.252 60.4883 160.222 60.9252H160.237Z" fill="#00A483"/>
<path fill-rule="evenodd" clip-rule="evenodd" d="M200.483 52.3205C199.882 51.9589 199.085 52.0945 198.604 52.5917C197.913 53.2545 197.206 53.9475 196.514 54.6555C195.357 55.8155 194.199 56.9755 193.042 58.1355C192.681 58.4971 192.32 58.8587 191.944 59.2353C191.343 59.8379 191.343 60.8623 191.944 61.4649C192.546 62.0675 193.568 62.0675 194.169 61.4649C194.861 60.7719 195.567 60.0639 196.259 59.3709C196.89 58.7381 197.522 58.1054 198.153 57.4727V74.6015C198.153 75.4602 198.875 76.1683 199.747 76.1683C200.619 76.1683 201.295 75.4753 201.295 74.6015V53.6914C201.295 53.134 200.994 52.6369 200.498 52.3356L200.483 52.3205Z" fill="white"/>
<path fill-rule="evenodd" clip-rule="evenodd" d="M219.651 62.9416C220.868 61.7816 221.635 60.1546 221.635 58.3619C221.635 54.912 218.884 52.125 215.441 52.125C211.998 52.125 209.247 54.912 209.247 58.3619C209.247 60.0492 209.909 61.5858 211.006 62.7006C209.082 64.0263 207.789 66.2559 207.789 68.7868C207.789 72.8544 211.096 76.1385 215.171 76.1385C219.245 76.1385 222.522 72.8544 222.522 68.7868C222.522 66.4066 221.394 64.2523 219.635 62.9266L219.651 62.9416ZM213.291 56.1775C213.863 55.6201 214.614 55.2886 215.441 55.2886C216.268 55.2886 217.035 55.6201 217.591 56.1775C218.192 56.7801 218.523 57.5333 218.523 58.377C218.523 59.2206 218.192 59.9738 217.591 60.5312C217.035 61.1037 216.268 61.4351 215.441 61.4351C214.614 61.4351 213.848 61.1037 213.291 60.5312C212.69 59.9588 212.404 59.1754 212.404 58.377C212.404 57.5785 212.705 56.7801 213.291 56.1775ZM218.162 71.7847C217.365 72.5832 216.313 73.005 215.186 73.005C214.058 73.005 212.961 72.5832 212.179 71.7847C211.382 70.9863 210.946 69.9318 210.946 68.8019C210.946 67.672 211.382 66.6175 212.179 65.7889C212.976 64.9905 214.028 64.5686 215.186 64.5686C216.343 64.5686 217.365 64.9905 218.162 65.7889C218.959 66.6175 219.38 67.672 219.38 68.8019C219.38 69.9318 218.944 70.9863 218.162 71.7847Z" fill="white"/>
<path fill-rule="evenodd" clip-rule="evenodd" d="M14.1514 66.9656L11.2349 94.9411L10.5283 113.441L13.6553 95.1972L16.7071 65.9863C15.9554 66.4383 15.0234 66.7697 14.1514 66.9806V66.9656Z" fill="#5C5D60"/>
<path fill-rule="evenodd" clip-rule="evenodd" d="M182.165 53.2111C181.609 52.7441 181.038 52.3524 180.406 52.0813C180 51.9155 179.609 51.7498 179.219 51.6444C178.783 51.5389 178.392 51.4787 177.956 51.4485C177.234 51.3883 176.467 51.4636 175.776 51.6142C175.084 51.7649 174.378 52.0361 173.791 52.3826C171.536 53.6781 170.153 56.1337 170.153 58.7249V69.5114C170.153 69.9031 170.183 70.34 170.259 70.7317C170.364 71.4548 170.589 72.1327 170.89 72.7955C171.191 73.4283 171.612 73.9857 172.078 74.528C172.544 75.0252 173.1 75.4922 173.701 75.8236C174.303 76.1852 174.994 76.4865 175.656 76.6522C176.377 76.8179 177.114 76.8781 177.835 76.8179C178.557 76.7878 179.294 76.6522 179.955 76.381C180.361 76.2153 180.722 76.0496 181.083 75.8537C181.444 75.6579 181.774 75.3867 182.075 75.1306C182.406 74.8594 182.706 74.5732 182.977 74.2267C183.338 73.7898 183.669 73.368 183.909 72.8709C184.405 71.8465 184.706 70.7166 184.706 69.5566V58.9057C184.706 58.1826 184.601 57.4444 184.405 56.7062C184.044 55.3805 183.248 54.115 182.18 53.2262L182.165 53.2111ZM180.677 72.0875C180.451 72.3587 180.181 72.5846 179.91 72.8106C179.64 73.0065 179.309 73.2174 178.978 73.3379C178.647 73.4735 178.317 73.5639 177.956 73.6392C177.595 73.6693 177.234 73.6693 176.828 73.6392C176.497 73.5789 176.137 73.4735 175.806 73.3379C175.475 73.2023 175.175 73.0065 174.874 72.8106C174.603 72.5846 174.348 72.3436 174.152 72.0875C173.927 71.7862 173.761 71.4849 173.596 71.1535C173.461 70.822 173.401 70.4605 173.325 70.1291C173.295 69.7675 173.295 69.4361 173.295 69.0745V59.0865C173.295 58.755 173.295 58.4537 173.325 58.1524C173.386 57.7909 173.431 57.4142 173.596 57.0828C173.746 56.7815 173.927 56.4501 174.152 56.1488C174.348 55.8927 174.603 55.6366 174.874 55.4257C175.159 55.1997 175.475 55.034 175.806 54.8984C176.137 54.7628 176.497 54.6423 176.828 54.5971C177.219 54.5368 177.595 54.5519 177.956 54.5971C178.317 54.6423 178.647 54.7628 178.978 54.8984C179.309 55.034 179.624 55.2148 179.91 55.4257C180.196 55.6366 180.466 55.8776 180.677 56.1488C180.902 56.435 181.068 56.7665 181.203 57.0828C181.353 57.4142 181.459 57.7758 181.504 58.1524C181.534 58.4537 181.504 58.7852 181.504 59.1166V70.0989C181.444 70.4605 181.338 70.8371 181.203 71.1685C181.038 71.5 180.872 71.8013 180.677 72.1026V72.0875Z" fill="#00A483"/>
<path fill-rule="evenodd" clip-rule="evenodd" d="M14.1844 59.2966C22.6182 58.1366 30.1199 62.0233 30.9318 67.9589C31.7436 73.9096 25.5648 79.6644 17.1159 80.8244C8.68209 81.9844 1.18035 78.0976 0.368534 72.147C-0.443279 66.1963 5.73551 60.4566 14.1844 59.2966Z" fill="#00A483"/>
<path fill-rule="evenodd" clip-rule="evenodd" d="M16.5939 43.6295L15.2559 56.51L14.82 60.6528C14.6846 62.1141 17.09 62.1292 17.2253 61.0747L17.6763 56.751L19.1496 42.6201C18.3979 43.0721 17.4659 43.4035 16.5939 43.6144V43.6295Z" fill="#5C5D60"/>
<path fill-rule="evenodd" clip-rule="evenodd" d="M15.6887 34.9815C23.5813 35.8101 29.4895 41.3239 28.8581 47.2896C28.2417 53.2553 21.3263 57.4132 13.4337 56.5997C5.54105 55.7711 -0.367135 50.2574 0.249241 44.2917C0.88065 38.3259 7.78105 34.168 15.6887 34.9815Z" fill="#00A483"/>
<path fill-rule="evenodd" clip-rule="evenodd" d="M24.6363 64.3726C26.2149 64.1617 27.7633 65.9243 28.0941 68.3045C28.4248 70.6848 27.4025 72.809 25.809 73.0199C24.2304 73.2308 22.682 71.4832 22.3512 69.0879C22.0205 66.6926 23.0428 64.5835 24.6213 64.3726H24.6363Z" fill="black"/>
<path fill-rule="evenodd" clip-rule="evenodd" d="M6.73324 40.5107C8.5974 40.7066 9.90532 42.8157 9.64975 45.211C9.39418 47.6063 7.68035 49.399 5.83123 49.2032C3.96706 49.0074 2.65915 46.8983 2.91472 44.5029C3.17029 42.1076 4.86908 40.3149 6.73324 40.5107Z" fill="black"/>
<path fill-rule="evenodd" clip-rule="evenodd" d="M22.376 -0.134766L18.9935 20.5946L17.2496 37.3468C17.1143 38.8081 19.5497 38.8081 19.6549 37.7385L21.4139 20.8507L22.376 -0.134766Z" fill="#5C5D60"/>
<path d="M166.231 88.3569C167.765 88.3569 168.742 88.7184 168.742 88.7184C168.742 89.0047 168.652 89.2909 168.471 89.4867C168.471 89.4867 167.524 89.2005 166.367 89.2005C164.818 89.2005 164.082 89.8483 164.082 90.933C164.082 92.1382 165.209 92.4093 166.517 92.7859C167.795 93.1776 169.103 93.6898 169.103 95.4826C169.103 97.1849 167.945 98.1641 165.871 98.1641C164.187 98.1641 163.104 97.6369 163.104 97.6369C163.104 97.3657 163.195 97.0644 163.36 96.8535C163.36 96.8535 164.563 97.2602 165.811 97.2602C167.314 97.2602 168.111 96.6426 168.111 95.4976C168.111 94.3527 167.194 93.9912 166.141 93.6899C164.743 93.253 163.104 92.9065 163.104 90.9782C163.104 89.3813 164.187 88.3418 166.247 88.3418L166.231 88.3569Z" fill="white"/>
<path d="M179.761 88.4922C179.761 88.4922 179.851 88.6579 179.851 88.914C179.851 89.1701 179.761 89.3509 179.761 89.3509H177.175V97.968C177.175 97.968 177.009 98.0434 176.679 98.0434C176.333 98.0434 176.198 97.968 176.198 97.968V89.3509H173.552C173.552 89.3509 173.477 89.1701 173.477 88.914C173.477 88.6579 173.552 88.4922 173.552 88.4922H179.761Z" fill="white"/>
<path d="M191.198 94.9396C191.198 97.0185 189.906 98.1936 187.966 98.1936C186.027 98.1936 184.749 97.0035 184.749 94.9396V88.5822C184.749 88.5822 184.914 88.5068 185.245 88.5068C185.576 88.5068 185.741 88.5822 185.741 88.5822V95.0902C185.741 96.5214 186.568 97.365 188.011 97.365C189.455 97.365 190.251 96.5214 190.251 95.0902V88.5822C190.251 88.5822 190.402 88.5068 190.732 88.5068C191.063 88.5068 191.213 88.5822 191.213 88.5822V94.9396H191.198Z" fill="white"/>
<path d="M199.744 88.4916C202.239 88.4916 203.592 89.6818 203.592 93.2672C203.592 96.8527 202.224 98.0428 199.744 98.0428H196.978V88.4766H199.744V88.4916ZM199.669 97.2142C201.488 97.2142 202.555 96.461 202.555 93.2672C202.555 90.0734 201.488 89.3202 199.669 89.3202H197.955V97.1992H199.669V97.2142Z" fill="white"/>
<path d="M209.051 88.5822C209.051 88.5822 209.201 88.5068 209.532 88.5068C209.863 88.5068 210.028 88.5822 210.028 88.5822V97.9827C210.028 97.9827 209.863 98.058 209.532 98.058C209.186 98.058 209.051 97.9827 209.051 97.9827V88.5822Z" fill="white"/>
<path d="M219.101 88.3555C221.356 88.3555 222.739 89.8318 222.739 93.2666C222.739 96.7014 221.356 98.1778 219.101 98.1778C216.846 98.1778 215.463 96.7014 215.463 93.2666C215.463 89.8318 216.861 88.3555 219.101 88.3555ZM219.101 89.169C217.507 89.169 216.485 90.1934 216.485 93.2666C216.485 96.3399 217.507 97.3492 219.101 97.3492C220.695 97.3492 221.717 96.3248 221.717 93.2666C221.717 90.2085 220.695 89.169 219.101 89.169Z" fill="white"/>
</g>
<defs>
<clipPath id="clip0_297_1137">
<rect width="224" height="116" fill="white"/>
</clipPath>
</defs>
</svg>
