<svg width="149" height="22" viewBox="0 0 149 22" fill="none" xmlns="http://www.w3.org/2000/svg">
<path fill-rule="evenodd" clip-rule="evenodd" d="M3.99089 3.81724C11.8412 0.42341 23.6506 11.4641 29.3594 1.72346C16.9025 5.08692 10.5112 -5.22467 3.99089 3.81724ZM1.81744 11.6549C9.66781 8.29225 21.5091 19.3329 27.186 9.56113C14.7617 12.9557 8.37043 2.64417 1.81744 11.6549ZM0 19.9358C7.81851 16.5731 19.6598 27.6138 25.3359 17.842C12.9116 21.2366 6.52113 10.9251 0 19.9358ZM40.2593 12.3528C39.2215 11.6222 38.0858 11.1782 36.8856 11.0201C36.6587 10.9881 36.4317 10.9881 36.2047 10.9562H35.0053C34.8755 10.9562 34.7783 10.9562 34.6811 10.9881H34.4542L34.6811 10.1952L36.5623 3.78609H37.6008C37.8278 3.78609 38.1201 3.81724 38.4769 3.84918C38.801 3.88112 39.1578 3.91306 39.5146 4.00809C40.1311 4.16699 40.6822 4.51595 41.2023 5.02382C41.6889 5.49897 42.013 6.29271 42.1428 7.37154H42.7266L44.1212 2.7392H30.3326L30.1057 3.43712H30.4298C30.8838 3.43712 31.3059 3.501 31.6619 3.62796C32.0187 3.75493 32.2138 4.04002 32.2138 4.4848C32.2138 4.54867 32.1812 4.6437 32.1812 4.73873C32.1439 4.86239 32.1222 4.99005 32.1166 5.11885C32.1166 5.18273 32.084 5.21466 32.084 5.21466V5.27775C32.0187 5.40472 32.0187 5.49975 31.9868 5.59556C31.9868 5.69059 31.9542 5.75446 31.9215 5.7864L28.1584 18.6358C27.9641 19.3664 27.6718 19.9366 27.3469 20.3494C26.9901 20.7934 26.3736 20.9835 25.433 20.9835H24.9138L24.7194 21.7133H34.6795C36.5607 21.6503 38.1504 21.1432 39.5776 20.2225C41.0374 19.2698 41.7844 17.8109 41.7844 15.9071C41.7844 14.2566 41.2978 13.0827 40.2593 12.3528ZM36.172 19.269C35.6854 19.6811 35.1988 19.9997 34.6795 20.2217C34.0705 20.5 33.4053 20.6408 32.7331 20.6337H32.4734C32.3763 20.6337 32.2783 20.6337 32.2138 20.6026H31.9215C31.8383 20.57 31.751 20.5485 31.6619 20.5387L34.1276 12.067C34.1921 12.035 34.2893 12.035 34.3872 12.035H34.7767C35.4903 12.067 36.172 12.257 36.7877 12.6699C37.4041 13.05 37.6964 13.8437 37.6964 14.9864C37.6972 16.954 37.1779 18.3818 36.172 19.269ZM148.677 20.9827C148.352 20.9827 148.092 20.8877 147.864 20.7288C147.639 20.5706 147.541 20.1266 147.541 19.3648V18.9839C147.541 18.8889 147.541 18.762 147.574 18.6031L148.806 2.35907H148.092L135.7 18.2549C134.857 19.3337 134.176 20.0316 133.657 20.3806C133.236 20.6657 132.846 20.8557 132.521 20.9188C132.035 20.8238 131.678 20.6026 131.418 20.2848C131.098 19.8378 130.826 19.3593 130.607 18.857C130.607 18.825 126.648 10.1002 126.648 10.1002L131.644 5.49975C132.52 4.64292 133.267 4.10389 133.85 3.84996C134.435 3.56487 134.986 3.4379 135.407 3.4379H135.505L135.7 2.73998H129.341L129.147 3.4379H129.341C129.633 3.4379 129.828 3.50178 129.926 3.62874C130.087 3.75571 130.153 3.91461 130.216 4.07274C130.249 4.13661 130.282 4.1997 130.282 4.26357C130.282 4.32745 130.314 4.39054 130.314 4.45442C130.314 4.70757 130.216 4.96151 130.087 5.21622C129.926 5.43822 129.795 5.62827 129.633 5.78718C129.535 5.88221 129.472 5.97724 129.406 6.04112C129.308 6.10421 129.245 6.13614 129.179 6.20001L123.6 11.3714H123.502L125.157 5.78796C125.384 4.93112 125.676 4.36016 126.033 3.97926C126.389 3.6303 126.974 3.44024 127.849 3.44024L128.044 2.74231H119.479L119.285 3.44024H119.577C120.29 3.44024 120.778 3.53527 121.005 3.72611C121.263 3.88501 121.361 4.1701 121.361 4.48791C121.361 4.70991 121.328 4.89997 121.296 5.12197C121.232 5.34397 121.167 5.56674 121.101 5.78873L117.338 18.6381C117.078 19.4638 116.786 20.0659 116.429 20.4468C116.268 20.6369 116.041 20.7638 115.748 20.8589C115.424 20.9539 115.068 20.9858 114.645 20.9858H114.126L113.899 21.7157H122.82L123.016 20.9858H122.853C122.172 20.9858 121.717 20.8908 121.459 20.7319C121.232 20.5418 121.101 20.2879 121.101 19.9381C121.101 19.7481 121.134 19.5261 121.167 19.3041C121.232 19.114 121.296 18.892 121.361 18.6381L123.21 12.4198H123.274L126.161 18.8928C126.226 19.0517 126.292 19.2098 126.324 19.3368C126.357 19.4949 126.357 19.6227 126.357 19.7489C126.357 20.1298 126.259 20.4468 126.032 20.6696C125.805 20.8923 125.48 20.9866 125.058 20.9866H124.832L124.573 21.7165H137.776L138.003 20.9866H137.645C137.257 20.9866 136.964 20.8916 136.802 20.7965C136.608 20.6376 136.51 20.5107 136.446 20.3525C136.446 20.2575 136.413 20.1936 136.413 20.1305C136.413 20.0667 136.381 20.0036 136.381 19.9397C136.381 19.8447 136.446 19.7177 136.51 19.5596C136.575 19.4007 136.64 19.2426 136.769 19.0837C136.802 19.0206 136.835 18.9886 136.867 18.9255C136.898 18.8617 136.931 18.8297 136.964 18.7666C137.062 18.6397 137.125 18.5446 137.223 18.4177C137.289 18.3226 137.352 18.2276 137.418 18.1645L139.105 15.9741H143.776L143.582 18.5135C143.551 19.0884 143.431 19.6553 143.224 20.1944C143.063 20.5753 142.738 20.8285 142.187 20.9243C141.973 20.963 141.756 20.9843 141.538 20.9882H141.377L141.15 21.718H148.773L149 20.9882H148.677V20.9827ZM143.843 14.8906H139.949L144.296 9.27527H144.393L143.843 14.8906ZM110.655 20.7926C110.299 20.6657 110.104 20.3806 110.104 19.935C110.104 19.84 110.137 19.6811 110.169 19.491C110.202 19.301 110.266 19.0159 110.396 18.6342L114.16 5.78484C114.387 4.92801 114.679 4.35705 115.068 3.97615C115.23 3.81725 115.457 3.69106 115.749 3.59525C116.106 3.48661 116.478 3.433 116.852 3.43634H117.372L117.566 2.73841H108.709L108.451 3.43634H108.612C109.195 3.43634 109.65 3.50021 109.943 3.69028C110.235 3.81646 110.364 4.10234 110.364 4.48324V4.64214C110.364 4.73795 110.331 4.8322 110.331 4.89607C110.299 4.99188 110.299 5.05498 110.266 5.15001V5.30891L100.436 16.0653H100.307L103.323 5.78562C103.55 5.08769 103.81 4.51673 104.136 4.07196C104.492 3.6599 105.108 3.4379 106.049 3.4379H106.374L106.568 2.73998H97.711L97.4514 3.4379H97.809C98.4899 3.4379 98.9447 3.53294 99.2043 3.72378C99.4313 3.88268 99.5603 4.16777 99.5603 4.48557C99.5603 4.70757 99.5277 4.89763 99.4624 5.11963C99.4247 5.34537 99.3707 5.56819 99.3007 5.7864L95.5376 18.6358C95.3106 19.4614 95.0183 20.0636 94.6289 20.4445C94.5325 20.5395 94.4345 20.6034 94.3039 20.6976C93.9153 20.8885 93.4294 20.9835 92.8449 20.9835H92.2929L92.0986 21.7133H100.988L101.215 20.9835H101.085C100.6 20.9835 100.176 20.9196 99.82 20.7934C99.4624 20.6665 99.3007 20.3814 99.3007 19.9358C99.3007 19.8727 99.3007 19.7777 99.3333 19.6819C99.3333 19.5876 99.366 19.4607 99.3986 19.3337V19.2698C99.4313 19.2067 99.4313 19.1748 99.4313 19.1748C99.4313 19.0798 99.4624 19.0167 99.4624 18.9528C99.495 18.8897 99.5277 18.8578 99.5277 18.7947L109.422 7.75322H109.52L106.374 18.6358C106.114 19.4614 105.789 20.0636 105.432 20.4445C105.044 20.7934 104.458 20.9835 103.648 20.9835H103.291L103.096 21.7133H111.986L112.213 20.9835H111.888C111.469 20.9889 111.052 20.9243 110.655 20.7926ZM94.3047 6.13381C94.3855 6.54154 94.4292 6.95548 94.4353 7.37076V8.10063H95.0183L96.4789 2.73841H82.1082L80.4533 8.10063H81.0378C81.5555 7.0218 82.3352 6.06993 83.373 5.2131C84.4123 4.32433 85.6444 3.88034 87.0063 3.78531L82.6586 18.6334C82.6275 18.6654 82.6275 18.6973 82.5949 18.7604C82.5949 18.7923 82.5949 18.8235 82.5622 18.8554C82.3679 19.5214 82.1083 20.0301 81.7825 20.4102C81.4918 20.7911 80.8101 20.9811 79.8368 20.9811H79.1232L78.8963 21.711H88.7257L88.9217 20.9811H88.2407C87.7541 20.9811 87.2993 20.8861 86.9418 20.7911C86.5858 20.6641 86.4241 20.379 86.4241 19.9335C86.4241 19.9023 86.4241 19.8073 86.4567 19.6795C86.4567 19.5534 86.4878 19.4583 86.5204 19.2994C86.5204 19.2675 86.5204 19.2363 86.5531 19.2363V19.1413C86.5858 19.0143 86.6184 18.9193 86.6184 18.8235C86.6511 18.7292 86.6511 18.6654 86.6821 18.6334L91.0298 3.78531H91.2241C92.0675 3.78531 92.8138 4.0704 93.4637 4.64214C93.8523 4.99188 94.143 5.49897 94.3047 6.13381ZM79.9985 3.43712H80.5178L80.7448 2.7392H65.5315L65.2718 3.43712H65.6931C66.2451 3.43712 66.699 3.59603 67.0232 3.88112C67.38 4.19815 67.5424 4.61098 67.5424 5.15001C67.5424 5.372 67.5098 5.56285 67.4453 5.78484C67.38 6.00684 67.2828 6.22884 67.2183 6.45084C67.2183 6.51471 67.1856 6.5778 67.1856 6.60974C67.153 6.70477 67.1203 6.73671 67.1203 6.7998L66.3741 9.43339C66.1797 10.0043 65.9846 10.7031 65.7584 11.4641C65.5315 12.2259 65.2718 12.9869 65.0114 13.8118C64.8171 14.3197 64.6546 14.8595 64.4603 15.3346C64.2651 15.8425 64.1035 16.3184 63.9083 16.7944C63.714 17.2384 63.5515 17.6512 63.3899 18.0321C63.1947 18.4122 63.0331 18.762 62.8379 19.0159C62.7734 19.174 62.6763 19.269 62.611 19.396C62.5138 19.523 62.4493 19.6499 62.3513 19.745C62.2057 19.9095 62.0426 20.0583 61.8647 20.189C61.703 20.3159 61.5406 20.3479 61.3462 20.3479C61.1511 20.3479 60.9894 20.284 60.9568 20.1259C60.893 19.953 60.8602 19.7706 60.8596 19.5868V19.491V19.3648V19.269C60.8596 19.2379 60.827 19.2059 60.827 19.174V19.1429C60.827 19.1109 60.827 19.1109 60.7943 19.079C60.7617 18.825 60.6 18.5719 60.3404 18.3172C60.0807 18.096 59.7239 17.9682 59.2373 17.9682C58.7507 17.9682 58.3286 18.1271 57.9718 18.4441C57.615 18.7931 57.4207 19.2379 57.4207 19.8088C57.4207 20.2528 57.5505 20.6337 57.7448 20.9827C57.4525 20.9508 57.2255 20.8877 56.9986 20.7288C56.7716 20.5706 56.6736 20.1266 56.6736 19.3648V18.9839C56.6736 18.8889 56.6736 18.762 56.7063 18.6031L57.9383 2.35907H57.2247L44.8005 18.2549C43.9563 19.3337 43.2754 20.0316 42.7569 20.3806C42.7242 20.4117 42.6916 20.4437 42.6271 20.4748C42.1731 20.7607 41.751 20.9188 41.3942 20.9827L41.1672 21.7126H46.9094L47.1364 20.9827H46.7796C46.3575 20.9827 46.066 20.8877 45.9036 20.7926C45.7419 20.6337 45.6121 20.5068 45.5794 20.3486C45.546 20.2536 45.546 20.1897 45.546 20.1267C45.5141 20.0628 45.5141 19.9997 45.5141 19.9358C45.5141 19.8408 45.546 19.7138 45.6113 19.5557C45.6847 19.3905 45.7715 19.2314 45.8709 19.0798C45.9354 19.0167 45.9681 18.9847 45.9681 18.9216C46.0326 18.8578 46.0652 18.8258 46.0979 18.7627C46.1632 18.6358 46.2604 18.5407 46.3567 18.4138C46.422 18.3187 46.4865 18.2237 46.5518 18.1606L48.2387 15.9702H52.9424L52.7154 18.5096C52.6847 19.0844 52.5643 19.6513 52.3586 20.1905C52.1961 20.5714 51.872 20.8246 51.3208 20.9204C51.1265 20.9523 50.8987 20.9843 50.6718 20.9843H50.5101L50.2831 21.7141H57.9065L58.0363 21.334C58.0363 21.3652 58.0682 21.3652 58.1008 21.3971C58.5221 21.8092 59.1067 22 59.8521 22C60.9552 22 61.9284 21.6822 62.6747 21.0793C63.4201 20.5083 64.1345 19.4614 64.8155 17.9386C65.2368 16.9867 65.6915 15.7802 66.1782 14.417C66.6321 12.9892 67.1187 11.3394 67.7025 9.43494L69.3248 3.78764H73.8334L69.5192 18.6358C69.2595 19.4614 68.968 20.0636 68.6104 20.4445C68.2536 20.7934 67.6699 20.9835 66.7938 20.9835H66.2745L66.0802 21.7133H75.1634L75.3577 20.9835H75.0344C74.3527 20.9835 73.8987 20.8885 73.6391 20.7295C73.4121 20.5395 73.2823 20.2856 73.2823 19.9358C73.2823 19.7458 73.3149 19.5238 73.3476 19.3018C73.4129 19.1117 73.4774 18.8897 73.5427 18.6358L77.3058 5.78562C77.5654 4.92879 77.8577 4.35783 78.2145 3.97693C78.5395 3.6599 79.0906 3.46906 79.8368 3.4379L79.9985 3.43712ZM52.9766 14.8906H49.0837L53.4306 9.27527H53.5277L52.9766 14.8906Z" fill="white"/>
</svg>
