<svg width="103" height="33" viewBox="0 0 103 33" fill="none" xmlns="http://www.w3.org/2000/svg">
<g clip-path="url(#clip0_297_919)">
<path d="M50.3386 32.9771C45.429 32.7951 40.3855 31.5763 35.2293 29.3257C33.1309 28.4098 30.9117 27.2752 28.6534 25.9638C27.1639 25.0989 23.7544 22.9745 23.5646 22.7931C23.4452 22.679 23.3984 22.572 23.3984 22.4127C23.3984 22.1179 23.6065 21.9074 23.8974 21.9078C24.0481 21.908 24.0846 21.9243 24.4406 22.1489C25.8695 23.0505 27.8459 24.0717 29.7717 24.9036C38.7407 28.7777 49.3664 30.1381 59.5663 28.7182C66.5322 27.7484 73.2278 25.4794 78.4508 22.3185C79.2043 21.8625 79.2738 21.8385 79.4996 21.9569C79.8114 22.1205 79.8791 22.521 79.6362 22.766C79.5407 22.8623 79.4234 22.9388 77.709 24.0224C73.1366 26.9123 69.4451 28.8203 65.6014 30.2801C60.4316 32.2437 55.2507 33.1591 50.3386 32.9771Z" fill="white"/>
<path fill-rule="evenodd" clip-rule="evenodd" d="M0 0.51004C0 0.51004 0.0966758 0.819784 0.19019 1.70007C0.302295 3.89296 0.308238 5.71064 0.321195 7.73739C0.347007 9.30246 0.331907 10.8275 0.31862 12.296C0.309659 13.2905 0.302902 13.8326 0.302902 14.7368C0.302902 17.4275 0.0932562 19.3133 0.0932562 19.3133C0.0932562 19.3133 2.04734 19.7413 4.99683 19.7413C7.94735 19.7413 11.0779 18.702 12.8843 17.1425C14.6903 15.5831 16.3156 13.351 16.3156 9.34606C16.3156 5.34101 14.63 3.13951 12.4027 1.70277C10.1747 0.265373 6.77317 -0.00934885 4.154 0.112738C1.53547 0.235318 0.0906091 0.51004 0 0.51004ZM102.588 15.5831L98.6474 14.6356C97.6135 15.6746 96.4964 16.1909 95.0619 16.1639C92.1083 16.1089 90.6405 14.3407 90.0948 11.4248H102.797C102.978 10.3854 103.037 9.28469 102.978 8.24525C102.857 6.14578 102.222 4.2134 100.931 2.55875C99.6524 0.920584 97.4532 0.0614743 94.7343 0.0820237C92.1812 0.101693 90.0945 0.990364 88.4425 2.77292C86.89 4.44752 85.9607 7.00126 86.0039 10.3242C86.0455 13.481 86.8363 15.8314 88.7734 17.754C90.1219 19.0925 91.9346 19.8074 94.3124 19.8022C98.8431 19.6634 100.726 18.1803 102.588 15.5831ZM99.3623 8.18449H90.2439C90.4048 5.78908 92.5641 3.55809 94.8517 3.56913C97.2195 3.58017 99.2532 5.30035 99.3623 8.18449ZM59.3772 3.70659C62.3927 3.70659 64.8381 6.47923 64.8381 9.8982C64.8381 13.3172 62.3927 16.0899 59.3772 16.0899C56.3626 16.0899 53.9168 13.3172 53.9168 9.8982C53.9168 6.47923 56.3626 3.70659 59.3772 3.70659ZM59.4946 0C64.5548 0 68.658 4.46543 68.658 9.8982C68.658 15.331 64.4374 19.7366 59.3772 19.7366C54.3179 19.7366 50.2144 15.331 50.2144 9.8982C50.2144 4.46543 54.4354 0 59.4946 0ZM69.452 19.0686H73.5428V6.50242C77.2858 9.83529 80.0438 14.0242 81.6993 19.0686L85.2135 19.09V0.632128L81.2963 0.632133L81.2921 9.67513C80.0658 7.59214 78.5641 5.87898 77.0876 4.40213C75.6089 2.92297 74.4078 1.6705 72.9107 0.632133H69.452L69.452 19.0686ZM33.715 19.0686H37.6886V6.50242C41.4315 9.83529 44.1313 14.0242 45.7868 19.0686H49.3388V0.632127H45.3648V9.52782C43.0558 6.14902 40.2586 3.11413 37.0569 0.632127H33.715V19.0686ZM22.3666 0.632127H26.2198C29.9613 4.83641 32.2515 10.9514 33.0232 19.0686H28.8385C28.7298 17.6588 28.5602 16.3631 28.3301 15.0621H20.0695C19.8401 16.3611 19.672 17.6566 19.567 19.0686H15.503C16.2361 10.9025 18.6919 4.584 22.3666 0.632127ZM27.5591 11.6088C26.6609 8.69498 25.5914 6.29791 24.144 4.08708C22.7058 6.30649 21.5811 8.8086 20.7861 11.6088H27.5591ZM4.18902 3.72033C4.18902 3.72033 4.99681 3.68962 5.99062 3.68962C6.98429 3.68962 9.15463 3.87313 10.7497 5.4631C12.345 7.05313 12.3753 8.85673 12.3753 10.1106C12.3753 11.3641 11.9511 14.085 9.33189 15.3078C6.7132 16.5312 4.15894 16.0725 4.15894 16.0725L4.18902 3.72033Z" fill="white"/>
</g>
<defs>
<clipPath id="clip0_297_919">
<rect width="103" height="33" fill="white"/>
</clipPath>
</defs>
</svg>
