<svg width="36" height="23" viewBox="0 0 36 23" fill="none" xmlns="http://www.w3.org/2000/svg">
<path d="M10.6621 0C11.741 0 12.7247 0.0965448 13.6132 0.29C14.5018 0.483273 15.2633 0.800335 15.8979 1.24009C16.5325 1.68039 17.0244 2.2657 17.3735 2.996C17.7226 3.7263 17.8971 4.62812 17.8971 5.70181C17.8971 6.86163 17.6379 7.82799 17.1197 8.6009C16.6011 9.37399 15.8345 10.0074 14.8192 10.5014C16.2153 10.9096 17.2571 11.624 17.9448 12.6435C18.6318 13.6638 18.9764 14.8935 18.9764 16.332C18.9764 17.4916 18.7543 18.4958 18.3098 19.3443C17.8658 20.1929 17.2678 20.8853 16.5172 21.4214C15.7661 21.9586 14.9092 22.3556 13.9468 22.6138C12.9784 22.872 11.9811 23.0018 10.9798 23H0V0H10.6621ZM10.0275 9.30981C10.916 9.30981 11.6457 9.09515 12.2171 8.66545C12.7883 8.23612 13.0738 7.53799 13.0738 6.57163C13.0738 6.03497 12.9786 5.59448 12.7883 5.25091C12.5979 4.90751 12.3441 4.63854 12.0267 4.44563C11.7093 4.25218 11.3444 4.11852 10.9319 4.04282C10.5076 3.96676 10.0775 3.92906 9.64672 3.93018H4.98205V9.30999L10.0275 9.30981ZM10.313 19.07C10.7993 19.07 11.2649 19.0215 11.7091 18.925C12.1533 18.8283 12.5445 18.6672 12.8834 18.4415C13.2215 18.2164 13.4913 17.9102 13.6925 17.5234C13.8933 17.1371 13.9938 16.6432 13.9938 16.0416C13.9938 14.861 13.6656 14.018 13.0102 13.5132C12.3542 13.0085 11.4869 12.756 10.4081 12.756H4.98205V19.0696L10.313 19.07ZM25.246 18.5869C25.9229 19.2532 26.8961 19.5854 28.1654 19.5854C29.0747 19.5854 29.8577 19.355 30.5133 18.893C31.1692 18.4318 31.5712 17.9429 31.7193 17.4273H35.6858C35.0514 19.4243 34.0778 20.8528 32.7665 21.7114C31.4545 22.5706 29.8678 23 28.0064 23C26.716 23 25.5522 22.7906 24.5158 22.3717C23.479 21.9532 22.6009 21.3571 21.8822 20.584C21.1628 19.8111 20.6074 18.8882 20.216 17.814C19.8244 16.7405 19.6292 15.5591 19.6292 14.2705C19.6292 13.0253 19.8297 11.8657 20.2321 10.7918C20.6336 9.7183 21.2045 8.78942 21.9458 8.00518C22.6857 7.22166 23.5692 6.60418 24.5954 6.15309C25.6212 5.702 26.7583 5.47673 28.0066 5.47673C29.4029 5.47673 30.6191 5.75045 31.6561 6.29809C32.6923 6.84554 33.5439 7.58188 34.2106 8.50454C34.8769 9.42812 35.3578 10.4806 35.6546 11.6613C35.9508 12.8427 36.0561 14.0773 35.972 15.3658H24.1357C24.1989 16.8473 24.5685 17.9215 25.246 18.5869ZM30.339 9.82508C29.7997 9.22406 28.9796 8.92308 27.8799 8.92308C27.1605 8.92308 26.5631 9.04687 26.0872 9.29354C25.6111 9.54093 25.2301 9.84629 24.9445 10.2116C24.6591 10.577 24.4578 10.9637 24.3418 11.3713C24.2252 11.7794 24.1564 12.1445 24.1353 12.4665H31.4655C31.254 11.3067 30.8786 10.4265 30.339 9.82508ZM23.3659 1.16786H32.5244V3.74568H23.3659V1.16786Z" fill="url(#paint0_linear_319_5)" fill-opacity="0.61"/>
<defs>
<linearGradient id="paint0_linear_319_5" x1="5.0625" y1="-1.6389e-07" x2="26.0296" y2="27.0267" gradientUnits="userSpaceOnUse">
<stop stop-color="#0EA885"/>
<stop offset="0.837321" stop-color="#A142FF"/>
</linearGradient>
</defs>
</svg>
