<svg width="37" height="32" viewBox="0 0 37 32" fill="none" xmlns="http://www.w3.org/2000/svg">
<path d="M0 8.704C1.18349 7.317 2.36799 6.08 3.55148 4.992C4.73497 3.904 5.76309 3.077 6.63482 2.512C7.50654 1.947 8.28646 1.488 8.97557 1.136C9.66468 0.784 10.1813 0.555 10.5253 0.448L11.0742 0.32C11.3325 0.277 11.5907 0.256 11.849 0.256C12.2577 0.256 12.634 0.32 12.9791 0.448C13.539 0.661 13.9961 1.029 14.3512 1.552C14.7064 2.075 15.0181 2.661 15.2875 3.312C15.5569 3.963 15.788 4.73 15.9817 5.616C16.1754 6.501 16.3368 7.328 16.466 8.096C16.5951 8.864 16.7404 9.712 16.9018 10.64C17.0633 11.568 17.2197 12.32 17.37 12.896C18.0591 15.563 18.613 17.456 19.0317 18.576C19.4514 19.695 19.8984 20.256 20.3716 20.256C20.8902 20.256 21.6055 19.664 22.5196 18.481C23.4337 17.296 24.4407 15.682 25.5384 13.632C26.0984 12.608 26.3778 11.637 26.3778 10.72C26.3778 10.443 26.3566 10.199 26.3143 9.984C26.1216 8.875 25.5717 8.181 24.6677 7.904C24.4306 7.819 24.1723 7.776 23.8908 7.776C23.1381 7.776 22.2442 8.053 21.211 8.608C21.6862 5.835 23.127 3.606 25.5384 1.92C27.3676 0.64 29.2422 0 31.1562 0C31.4155 0 31.6738 0.011 31.9321 0.032C34.1275 0.202 35.6228 1.162 36.4188 2.912C36.8073 3.723 37 4.661 37 5.728C37 6.347 36.9354 6.997 36.8073 7.68C36.4188 9.856 35.6722 12.075 34.5624 14.336C33.4526 16.598 32.2368 18.598 30.9151 20.336C29.5913 22.074 28.1637 23.729 26.6371 25.296C25.1076 26.864 23.7798 28.111 22.6508 29.04C21.5208 29.968 20.5461 30.699 19.7289 31.232C18.8229 31.744 17.9784 32 17.1924 32C16.4064 32 15.6588 31.775 14.9485 31.328C14.2382 30.88 13.6359 30.368 13.1405 29.792C12.6451 29.216 12.2365 28.607 11.9136 27.968C11.5262 27.157 10.4769 23.973 8.76571 18.416C7.05454 12.858 6.01633 9.867 5.65009 9.44C5.6289 9.397 5.58552 9.354 5.52094 9.312C5.45637 9.27 5.31108 9.221 5.08508 9.168C4.85908 9.115 4.60079 9.115 4.31021 9.168C4.01963 9.221 3.62715 9.371 3.13176 9.616C2.63637 9.861 2.0986 10.208 1.51745 10.656L0 8.704Z" fill="url(#paint0_linear_319_3)" fill-opacity="0.61"/>
<defs>
<linearGradient id="paint0_linear_319_3" x1="5.20312" y1="-2.28021e-07" x2="35.2838" y2="28.643" gradientUnits="userSpaceOnUse">
<stop stop-color="#0EA885"/>
<stop offset="0.837321" stop-color="#A142FF"/>
</linearGradient>
</defs>
</svg>
