<svg width="28" height="36" viewBox="0 0 28 36" fill="none" xmlns="http://www.w3.org/2000/svg">
<path fill-rule="evenodd" clip-rule="evenodd" d="M26.126 8.12597L19.875 1.875C19.1836 1.18363 18.8371 0.837133 18.4336 0.589844C18.0757 0.370529 17.6845 0.208928 17.2764 0.110941C16.9314 0.0281327 16.5717 0.00695001 16.0008 0.00174332C16.0005 0.00174103 16.0003 0.00173874 16 0.00173645V0H15.3494C15.5944 0 15.8091 0 16 0.00173645V7C16 9.20914 17.7909 11 20 11H27.9418C27.9815 11.2709 27.9942 11.5783 27.998 12C27.9998 12.1911 28 12.406 28 12.6514V11H27.9418C27.9278 10.9041 27.9103 10.8128 27.8887 10.7227C27.7907 10.3145 27.6284 9.92428 27.4091 9.56639C27.1617 9.16272 26.8178 8.81777 26.126 8.12597ZM28 13H20C16.6863 13 14 10.3137 14 7V0H6.40039C4.16018 0 3.03924 0 2.18359 0.435976C1.43095 0.819469 0.819467 1.43095 0.435974 2.18359C0 3.03924 0 4.16018 0 6.40039V29.6004C0 31.8406 0 32.9601 0.435976 33.8158C0.819469 34.5684 1.43095 35.181 2.18359 35.5644C3.03841 36 4.15801 36 6.39388 36L21.6062 36C23.842 36 24.96 36 25.8148 35.5644C26.5674 35.181 27.181 34.5684 27.5645 33.8158C28 32.9609 28 31.843 28 29.6072V13ZM7.89062 26.625C7.33834 26.625 6.89062 27.0727 6.89062 27.625C6.89062 28.1773 7.33834 28.625 7.89062 28.625H19.7299C20.2822 28.625 20.7299 28.1773 20.7299 27.625C20.7299 27.0727 20.2822 26.625 19.7299 26.625H7.89062ZM6.89062 21.7056C6.89062 21.1533 7.33834 20.7056 7.89062 20.7056H19.7299C20.2822 20.7056 20.7299 21.1533 20.7299 21.7056C20.7299 22.2579 20.2822 22.7056 19.7299 22.7056H7.89062C7.33834 22.7056 6.89062 22.2579 6.89062 21.7056Z" fill="url(#paint0_linear_319_8)" fill-opacity="0.61"/>
<defs>
<linearGradient id="paint0_linear_319_8" x1="3.9375" y1="-2.56523e-07" x2="34.7143" y2="19.7132" gradientUnits="userSpaceOnUse">
<stop stop-color="#0EA885"/>
<stop offset="0.837321" stop-color="#A142FF"/>
</linearGradient>
</defs>
</svg>
