<svg width="48" height="48" viewBox="0 0 48 48" fill="none" xmlns="http://www.w3.org/2000/svg">
<path fill-rule="evenodd" clip-rule="evenodd" d="M22.2464 40.6504C18.489 37.5739 10 29.5493 10 19.8457C10 16.1735 11.475 12.6523 14.1005 10.0557C16.726 7.45901 20.2871 6 24.0002 6C27.7132 6 31.2739 7.45879 33.8994 10.0554C36.5249 12.6521 37.9998 16.1744 37.9998 19.8466C37.9998 29.5502 29.5113 37.5742 25.7539 40.6507C25.2141 41.0927 24.9439 41.3133 24.542 41.4265C24.2296 41.5144 23.7698 41.5144 23.4574 41.4265C23.0562 41.3135 22.7841 41.0907 22.2464 40.6504ZM24 23C21.2386 23 19 20.7614 19 18C19 15.2386 21.2386 13 24 13C26.7614 13 29 15.2386 29 18C29 20.7614 26.7614 23 24 23Z" fill="url(#paint0_linear_319_15)"/>
<defs>
<linearGradient id="paint0_linear_319_15" x1="13.9375" y1="6" x2="44.4584" y2="25.8288" gradientUnits="userSpaceOnUse">
<stop stop-color="#0EA885"/>
<stop offset="0.837321" stop-color="#A142FF"/>
</linearGradient>
</defs>
</svg>
