<svg width="34" height="27" viewBox="0 0 34 27" fill="none" xmlns="http://www.w3.org/2000/svg">
<path fill-rule="evenodd" clip-rule="evenodd" d="M0 20.2504V6.00037C0 3.90017 0 2.84929 0.408726 2.04712C0.768251 1.34151 1.34151 0.768251 2.04712 0.408726C2.84929 0 3.90017 0 6.00037 0H27.7504C29.8506 0 30.8992 0 31.7014 0.408726C32.407 0.768251 32.9822 1.34151 33.3417 2.04712C33.75 2.8485 33.75 3.89811 33.75 5.99421V20.2567C33.75 22.3528 33.75 23.4009 33.3417 24.2023C32.9822 24.9079 32.407 25.4821 31.7014 25.8417C30.9 26.25 29.8519 26.25 27.7558 26.25H5.99421C3.89811 26.25 2.8485 26.25 2.04712 25.8417C1.34151 25.4821 0.768251 24.9079 0.408726 24.2023C0 23.4001 0 22.3506 0 20.2504ZM32.4664 2.68141C32.9117 2.3548 33.008 1.729 32.6814 1.28364C32.3548 0.838271 31.729 0.741994 31.2836 1.0686C29.2231 2.57968 26.3542 4.74623 24.0044 6.532C22.8287 7.42552 21.7814 8.22482 21.0281 8.80076C20.6514 9.08873 20.3482 9.32089 20.1391 9.48109L19.8986 9.6654L19.8361 9.7133L19.8235 9.72303C18.4863 10.7035 18.0291 11.0169 17.5639 11.1373C17.1123 11.2541 16.6372 11.2541 16.1856 11.1373C15.7217 11.0173 15.2671 10.706 13.9376 9.7312L13.9295 9.72498L2.47763 1.07698C2.0369 0.744157 1.40981 0.831633 1.07698 1.27237C0.744157 1.7131 0.831633 2.34019 1.27237 2.67302L12.7112 11.3112C12.7204 11.3185 12.7298 11.3256 12.7393 11.3326L12.8989 11.4497C14.0144 12.2687 14.7985 12.8443 15.6848 13.0735C16.4649 13.2753 17.2846 13.2753 18.0647 13.0735C18.9516 12.8442 19.7375 12.2672 20.855 11.4468L21.0149 11.3294L21.0324 11.3163L20.4236 10.523L21.0325 11.3163L21.0327 11.3161L21.0337 11.3153L21.0377 11.3123L21.0534 11.3002L21.1156 11.2525L21.3554 11.0687C21.564 10.9089 21.8667 10.6772 22.2428 10.3896C22.995 9.81455 24.0407 9.01644 25.2146 8.12435C27.5639 6.33891 30.4208 4.18146 32.4664 2.68141Z" fill="url(#paint0_linear_319_24)" fill-opacity="0.61"/>
<defs>
<linearGradient id="paint0_linear_319_24" x1="4.74609" y1="-1.87048e-07" x2="29.4109" y2="26.1157" gradientUnits="userSpaceOnUse">
<stop stop-color="#0EA885"/>
<stop offset="0.837321" stop-color="#A142FF"/>
</linearGradient>
</defs>
</svg>
