<svg width="24" height="21" viewBox="0 0 24 21" fill="none" xmlns="http://www.w3.org/2000/svg">
<path d="M3.21935 2.74137L0 5.68454L1.11392 7.09916C1.60999 6.78815 2.60212 5.97682 3.04456 5.97682C4.03669 5.97682 4.92859 8.68807 5.77963 11.6697C6.54384 14.3471 7.33486 21 10.9816 21C15.1781 21 24 9.57373 24 4.48827C24 2.64814 23.638 0 20.0047 0C16.1112 0 14.1957 3.78969 13.7246 5.68454C14.0635 5.45666 14.986 5.30476 15.4943 5.30476C17.5653 5.30476 17.123 7.46975 16.8406 8.34321C16.5582 9.21666 14.387 13.4697 13.2163 13.4697C11.7855 13.4697 10.9383 7.20358 10.5241 4.48827C10.1099 1.77296 9.03679 0.29189 7.39887 0.29189C6.08854 0.29189 4.06655 1.92488 3.21935 2.74137Z" fill="white"/>
</svg>
